<?xml version="1.0" encoding="UTF-8"?>
<svg width="246px" height="126px" viewBox="0 0 246 126" version="1.1" xmlns="http://www.w3.org/2000/svg" xmlns:xlink="http://www.w3.org/1999/xlink">
    <!-- Generator: Sketch 49.3 (51167) - http://www.bohemiancoding.com/sketch -->
    <title>Group 5</title>
    <desc>Created with Sketch.</desc>
    <defs>
        <rect id="path-1" x="0" y="9" width="66" height="78" rx="4"></rect>
        <path d="M14.9237825,5.89641134 L27.2463693,5.89641134 L27.2463693,5 C27.2463693,2.23857625 29.4849456,3.2269814e-14 32.2463693,2.93098879e-14 L34.0172418,0 C36.7786655,-2.95992614e-15 39.0172418,2.23857625 39.0172418,5 L39.0172418,5.89641134 L51.0001114,5.89641134 C53.2092504,5.89641134 55.0001114,7.68727234 55.0001114,9.89641134 L55.0001114,9.89641134 C55.0001114,12.1055503 53.2092504,13.8964113 51.0001114,13.8964113 L15.0794591,13.8964113 C12.8574214,13.8964113 11.0440953,12.1180284 11.0008635,9.89641134 L11.0008635,9.89641134 C10.958703,7.72984302 12.6808758,5.93931453 14.8474441,5.89715403 C14.8728872,5.89665891 14.8983346,5.89641134 14.9237825,5.89641134 Z" id="path-2"></path>
        <rect id="path-3" x="6" y="17" width="53.7928227" height="63.2856737" rx="3"></rect>
        <path d="M0,0 L60,0 L60,30 L0,30 L0,0 Z" id="path-4"></path>
        <mask id="mask-5" maskContentUnits="userSpaceOnUse" maskUnits="objectBoundingBox" x="0" y="0" width="60" height="30" fill="white">
            <use xlink:href="#path-4"></use>
        </mask>
        <polygon id="path-6" points="0 0.0025 1 0.0025 1 1 0 1"></polygon>
    </defs>
    <g id="服务监控FTP-gbase" stroke="none" stroke-width="1" fill="none" fill-rule="evenodd">
        <g id="界面异常" transform="translate(-436.000000, -328.000000)">
            <g id="未授权" transform="translate(436.000000, 329.000000)">
                <g id="Group-5">
                    <g id="文件夹背景" transform="translate(99.392766, 9.896411)">
                        <g id="Rectangle-17-Copy">
                            <use fill="#E5E9F2" fill-rule="evenodd" xlink:href="#path-1"></use>
                            <rect stroke="#A2B0C4" stroke-width="1" x="0.5" y="9.5" width="65" height="77" rx="4"></rect>
                        </g>
                        <g id="Rectangle-2">
                            <use fill="#F9FAFC" fill-rule="evenodd" xlink:href="#path-2"></use>
                            <path stroke="#A2B0C4" stroke-width="1" d="M14.9237825,6.39641134 C14.8904752,6.39651935 14.8904752,6.39651935 14.8571721,6.39705938 C12.9666939,6.43384729 11.463981,7.99620518 11.5007689,9.88668339 C11.5387018,11.8360013 13.1297722,13.3964113 15.0794591,13.3964113 L51.0001114,13.3964113 C52.933108,13.3964113 54.5001114,11.829408 54.5001114,9.89641134 C54.5001114,7.96341472 52.933108,6.39641134 51.0001114,6.39641134 L38.5172418,6.39641134 L38.5172418,5 C38.5172418,2.51471863 36.5025232,0.5 34.0172418,0.5 L32.2463693,0.5 C29.7610879,0.5 27.7463693,2.51471863 27.7463693,5 L27.7463693,6.39641134 L14.9237825,6.39641134 Z"></path>
                        </g>
                        <circle id="Oval-2" stroke="#A2B0C4" fill="#FFFFFF" cx="33" cy="7" r="2"></circle>
                        <g id="Rectangle-17">
                            <use fill="#FFFFFF" fill-rule="evenodd" xlink:href="#path-3"></use>
                            <rect stroke="#A2B0C4" stroke-width="1" x="6.5" y="17.5" width="52.7928227" height="62.2856737" rx="3"></rect>
                        </g>
                    </g>
                    <g id="弹出框" transform="translate(115.000000, 35.000000)">
                        <use id="虚线背景" stroke="#F8A900" mask="url(#mask-5)" stroke-width="2" fill="#FFFFFF" stroke-dasharray="5,3" xlink:href="#path-4"></use>
                        <g id="禁止图标" transform="translate(15.000000, 19.000000)">
                            <g id="Page-1">
                                <g id="Group-5" transform="translate(0.000000, 0.602540)">
                                    <mask id="mask-7" fill="white">
                                        <use xlink:href="#path-6"></use>
                                    </mask>
                                    <g id="Clip-4"></g>
                                </g>
                            </g>
                        </g>
                        <rect id="Rectangle-20" fill="#F8A900" x="27" y="10" width="15" height="2" rx="1"></rect>
                        <rect id="Rectangle-20-Copy" fill="#F8A900" x="27" y="17" width="23" height="2" rx="1"></rect>
                    </g>
                    <g id="点状装饰">
                        <circle id="Oval" stroke="#CCD5E0" fill="#FFFFFF" cx="214.5" cy="51.5" r="3.5"></circle>
                        <circle id="Oval-Copy-9" stroke="#CCD5E0" fill="#FFFFFF" cx="224.5" cy="113.5" r="3.5"></circle>
                        <circle id="Oval-Copy-7" stroke="#E5E9F2" fill="#FFFFFF" cx="179" cy="3" r="3"></circle>
                        <circle id="Oval-Copy" stroke="#CCD5E0" fill="#FFFFFF" cx="43.5" cy="28.5" r="3.5"></circle>
                        <circle id="Oval-Copy-6" stroke="#CCD5E0" fill="#FFFFFF" cx="39.5" cy="119.5" r="4.5"></circle>
                        <circle id="Oval-Copy-2" fill="#E5E9F2" cx="72.5" cy="37.5" r="2.5"></circle>
                        <circle id="Oval-Copy-3" fill="#CCD5E0" cx="42" cy="65" r="2"></circle>
                        <circle id="Oval-Copy-8" fill="#CCD5E0" cx="238.5" cy="92.5" r="2.5"></circle>
                        <circle id="Oval-Copy-10" fill="#E0E6ED" cx="197.5" cy="82.5" r="2.5"></circle>
                        <circle id="Oval-Copy-5" fill="#E0E6ED" cx="2.5" cy="44.5" r="2.5"></circle>
                    </g>
                    <g id="十字心装饰" transform="translate(62.000000, 5.000000)">
                        <g id="十字心" transform="translate(122.000000, 23.000000)" fill="#A2B0C4">
                            <rect id="Rectangle-14" x="4" y="0" width="3" height="11" rx="1.5"></rect>
                            <rect id="Rectangle-14" transform="translate(5.500000, 5.500000) rotate(90.000000) translate(-5.500000, -5.500000) " x="4" y="0" width="3" height="11" rx="1.5"></rect>
                        </g>
                        <g id="十字心-copy" transform="translate(175.000000, 0.000000)" fill="#A2B0C4">
                            <rect id="Rectangle-14" x="3.27272727" y="0" width="2.45454545" height="9" rx="1.22727273"></rect>
                            <rect id="Rectangle-14" transform="translate(4.500000, 4.500000) rotate(90.000000) translate(-4.500000, -4.500000) " x="3.27272727" y="0" width="2.45454545" height="9" rx="1.22727273"></rect>
                        </g>
                        <g id="十字心-copy-2" transform="translate(20.000000, 1.000000)" fill="#A2B0C4">
                            <rect id="Rectangle-14" x="3.63636364" y="0" width="2.72727273" height="10" rx="1.36363636"></rect>
                            <rect id="Rectangle-14" transform="translate(5.000000, 5.000000) rotate(90.000000) translate(-5.000000, -5.000000) " x="3.63636364" y="0" width="2.72727273" height="10" rx="1.36363636"></rect>
                        </g>
                        <g id="十字心-copy-4" transform="translate(56.000000, 64.000000)" fill="#CCD5E0">
                            <rect id="Rectangle-14" x="1.81818182" y="0" width="1.36363636" height="5" rx="0.681818182"></rect>
                            <rect id="Rectangle-14" transform="translate(2.500000, 2.500000) rotate(90.000000) translate(-2.500000, -2.500000) " x="1.81818182" y="0" width="1.36363636" height="5" rx="0.681818182"></rect>
                        </g>
                        <g id="十字心-copy-3" transform="translate(0.000000, 81.000000)" fill="#A2B0C4">
                            <rect id="Rectangle-14" x="3.63636364" y="0" width="2.72727273" height="10" rx="1.36363636"></rect>
                            <rect id="Rectangle-14" transform="translate(5.000000, 5.000000) rotate(90.000000) translate(-5.000000, -5.000000) " x="3.63636364" y="0" width="2.72727273" height="10" rx="1.36363636"></rect>
                        </g>
                    </g>
                    <path d="M122.874289,59.0247 L136.581327,59.0247 C137.969867,59.0247 138.87387,57.5629568 138.252222,56.3208236 L131.398994,42.6137854 C130.710534,41.2368651 128.745082,41.2368651 128.056621,42.6137854 L121.203393,56.3208236 C120.581745,57.5629568 121.485168,59.0247 122.874289,59.0247 Z" id="Page-1" fill="#F8A900"></path>
                    <rect id="Rectangle-4" fill="#FFFFFF" x="129" y="46" width="2" height="8" rx="1"></rect>
                    <rect id="Rectangle-4-Copy" fill="#FFFFFF" x="129" y="55" width="2" height="2" rx="1"></rect>
                </g>
            </g>
        </g>
    </g>
</svg>