<?xml version="1.0" encoding="UTF-8"?>
<svg width="175px" height="42px" viewBox="0 0 175 42" version="1.1" xmlns="http://www.w3.org/2000/svg" xmlns:xlink="http://www.w3.org/1999/xlink">
    <!-- Generator: Sketch 54.1 (76490) - https://sketchapp.com -->
    <title>全域运维logo</title>
    <desc>Created with Sketch.</desc>
    <g id="采集管理" stroke="none" stroke-width="1" fill="none" fill-rule="evenodd">
        <g id="登录复制" transform="translate(-1023.000000, -208.000000)" fill="#FFFFFF">
            <g id="全域运维logo" transform="translate(1023.000000, 208.000000)">
                <g id="编组-2" transform="translate(48.000000, 0.000000)" fill-rule="nonzero">
                    <path d="M7.65625,15 L6.41210938,11.8212891 L2.40625,11.8212891 L1.17578125,15 L0,15 L3.95117188,4.96484375 L4.92871094,4.96484375 L8.859375,15 L7.65625,15 Z M6.04980469,10.7753906 L4.88769531,7.67871094 C4.73730394,7.28678189 4.58235757,6.80599243 4.42285156,6.23632812 C4.32259064,6.67383031 4.17903739,7.15461978 3.9921875,7.67871094 L2.81640625,10.7753906 L6.04980469,10.7753906 Z M12.8517764,15 L12.8517764,5.00585938 L14.0138858,5.00585938 L14.0138858,15 L12.8517764,15 Z M25.0131232,12.3408203 C25.0131232,13.220382 24.694116,13.9062475 24.0560919,14.3984375 C23.4180679,14.8906275 22.5521912,15.1367188 21.4584357,15.1367188 C20.2735339,15.1367188 19.3620847,14.984051 18.7240607,14.6787109 L18.7240607,13.5576172 C19.134219,13.7307951 19.5808291,13.8675125 20.0639044,13.9677734 C20.5469798,14.0680344 21.0254906,14.1181641 21.4994513,14.1181641 C22.2741948,14.1181641 22.8575223,13.9711929 23.2494513,13.6772461 C23.6413804,13.3832993 23.8373419,12.9742865 23.8373419,12.4501953 C23.8373419,12.1038394 23.7678439,11.8201508 23.6288458,11.5991211 C23.4898478,11.3780913 23.2574282,11.1741546 22.9315802,10.9873047 C22.6057322,10.8004548 22.1101317,10.5885429 21.4447638,10.3515625 C20.5150717,10.0188785 19.850853,9.62467676 19.452088,9.16894531 C19.053323,8.71321387 18.8539435,8.11849325 18.8539435,7.38476562 C18.8539435,6.61457948 19.1433286,6.00162988 19.7221076,5.54589844 C20.3008865,5.09016699 21.0665038,4.86230469 22.0189826,4.86230469 C23.0124771,4.86230469 23.926205,5.04459453 24.7601935,5.40917969 L24.3978888,6.42089844 C23.5730149,6.07454254 22.7709396,5.90136719 21.9916388,5.90136719 C21.3764014,5.90136719 20.8956119,6.03352732 20.549256,6.29785156 C20.2029001,6.5621758 20.0297247,6.92903411 20.0297247,7.3984375 C20.0297247,7.7447934 20.0935262,8.02848197 20.221131,8.24951172 C20.3487358,8.47054147 20.5640657,8.67333892 20.8671271,8.85791016 C21.1701885,9.04248139 21.6338883,9.24641815 22.2582404,9.46972656 C23.3064227,9.84342635 24.0276069,10.244464 24.4218146,10.6728516 C24.8160223,11.1012391 25.0131232,11.6572231 25.0131232,12.3408203 Z M38.3981027,15 L37.2496652,15 L35.2330637,8.30761719 C35.1373601,8.01139175 35.0302648,7.63769757 34.9117746,7.18652344 C34.7932844,6.73534931 34.7317616,6.46419316 34.7272043,6.37304688 C34.6269434,6.97461238 34.4674398,7.63313444 34.2486887,8.34863281 L32.2936106,15 L31.1451731,15 L28.4859934,5.00585938 L29.7164621,5.00585938 L31.2955637,11.1787109 C31.5143148,12.0446007 31.6738184,12.828447 31.7740793,13.5302734 C31.8971268,12.6962849 32.0794166,11.8805378 32.3209543,11.0830078 L34.1119699,5.00585938 L35.3424387,5.00585938 L37.2223215,11.1376953 C37.4410726,11.8440791 37.6256411,12.6415971 37.7760324,13.5302734 C37.8626214,12.8831348 38.0266823,12.0947312 38.2682199,11.1650391 L39.8404856,5.00585938 L41.0709543,5.00585938 L38.3981027,15 Z M49.411012,15 L49.1854261,13.9335938 L49.1307386,13.9335938 C48.7570388,14.4029971 48.3844839,14.7208651 48.0130628,14.887207 C47.6416417,15.053549 47.1779419,15.1367188 46.6219495,15.1367188 C45.8791072,15.1367188 45.2969191,14.9453144 44.8753675,14.5625 C44.4538159,14.1796856 44.2430432,13.6350947 44.2430432,12.9287109 C44.2430432,11.4156825 45.4529921,10.6227217 47.8729261,10.5498047 L49.1444104,10.5087891 L49.1444104,10.0439453 C49.1444104,9.45605175 49.0179469,9.02197406 48.7650159,8.74169922 C48.512085,8.46142438 48.1076294,8.32128906 47.551637,8.32128906 C46.9272849,8.32128906 46.2209118,8.5126934 45.4324964,8.89550781 L45.0838636,8.02734375 C45.453006,7.82682191 45.8574616,7.66959692 46.2972425,7.55566406 C46.7370233,7.4417312 47.1779369,7.38476562 47.6199964,7.38476562 C48.51323,7.38476562 49.17517,7.58300583 49.6058362,7.97949219 C50.0365024,8.37597854 50.2518323,9.01171438 50.2518323,9.88671875 L50.2518323,15 L49.411012,15 Z M46.8475354,14.2001953 C47.5539192,14.2001953 48.1087639,14.0065124 48.5120862,13.6191406 C48.9154085,13.2317689 49.1170667,12.6894566 49.1170667,11.9921875 L49.1170667,11.3154297 L47.9823011,11.3632812 C47.0799528,11.3951825 46.4294059,11.5353178 46.0306409,11.7836914 C45.6318759,12.032065 45.4324964,12.4182917 45.4324964,12.9423828 C45.4324964,13.3525411 45.5566813,13.6647125 45.805055,13.8789062 C46.0534286,14.0931 46.4009186,14.2001953 46.8475354,14.2001953 Z M58.6260697,7.37109375 C58.9587536,7.37109375 59.2572533,7.39843723 59.5215775,7.453125 L59.3643509,8.50585938 C59.0544536,8.43749966 58.7810188,8.40332031 58.5440384,8.40332031 C57.9379156,8.40332031 57.4195289,8.6494116 56.9888627,9.14160156 C56.5581964,9.63379152 56.3428666,10.2467411 56.3428666,10.9804688 L56.3428666,15 L55.2081009,15 L55.2081009,7.5078125 L56.1446244,7.5078125 L56.2745072,8.89550781 L56.3291947,8.89550781 C56.6071909,8.40787517 56.9421485,8.03190236 57.3340775,7.76757812 C57.7260065,7.50325389 58.1566663,7.37109375 58.6260697,7.37109375 Z M66.4260883,15.1367188 C65.3186609,15.1367188 64.444809,14.7994825 63.8045063,14.125 C63.1642036,13.4505175 62.8440571,12.5140034 62.8440571,11.3154297 C62.8440571,10.1077414 63.1414174,9.14844105 63.7361469,8.4375 C64.3308764,7.72655895 65.1295338,7.37109375 66.132143,7.37109375 C67.0709498,7.37109375 67.8137809,7.67984717 68.3606586,8.29736328 C68.9075364,8.91487939 69.1809711,9.72948713 69.1809711,10.7412109 L69.1809711,11.4589844 L64.0198383,11.4589844 C64.0426249,12.3385461 64.2647906,13.0061826 64.6863422,13.4619141 C65.1078938,13.9176455 65.7014751,14.1455078 66.4671039,14.1455078 C67.2737486,14.1455078 68.0712667,13.9768897 68.8596821,13.6396484 L68.8596821,14.6513672 C68.4586384,14.8245451 68.0792477,14.9487301 67.7214985,15.0239258 C67.3637493,15.0991215 66.9319502,15.1367188 66.4260883,15.1367188 Z M66.1184711,8.32128906 C65.5169056,8.32128906 65.0372555,8.51725064 64.6795063,8.90917969 C64.3217571,9.30110873 64.1109845,9.84342102 64.0471821,10.5361328 L67.9641742,10.5361328 C67.9641742,9.82063444 67.8046706,9.2726256 67.4856586,8.89208984 C67.1666466,8.51155409 66.710922,8.32128906 66.1184711,8.32128906 Z" id="AISWare"></path>
                    <path d="M88.0517578,9.38769531 L92.0166016,9.38769531 L92.0166016,14.5693359 C91.3740202,14.7789724 90.7690458,14.9259436 90.2016602,15.0102539 C89.6342745,15.0945642 89.0543649,15.1367188 88.4619141,15.1367188 C86.953443,15.1367188 85.801599,14.6935266 85.0063477,13.8071289 C84.2110963,12.9207312 83.8134766,11.6481203 83.8134766,9.98925781 C83.8134766,8.3759685 84.2748977,7.11816857 85.1977539,6.21582031 C86.1206101,5.31347205 87.4000569,4.86230469 89.0361328,4.86230469 C90.0615286,4.86230469 91.050451,5.06738076 92.0029297,5.47753906 L91.2988281,7.17285156 C90.5696578,6.80826641 89.8108763,6.62597656 89.0224609,6.62597656 C88.1064407,6.62597656 87.3727241,6.93359067 86.8212891,7.54882812 C86.269854,8.16406558 85.9941406,8.99120574 85.9941406,10.0302734 C85.9941406,11.1149143 86.2163064,11.9431938 86.6606445,12.5151367 C87.1049827,13.0870797 87.7509723,13.3730469 88.5986328,13.3730469 C89.0406923,13.3730469 89.4895811,13.3274744 89.9453125,13.2363281 L89.9453125,11.1513672 L88.0517578,11.1513672 L88.0517578,9.38769531 Z M95.5760478,15 L95.5760478,5.00585938 L97.6951884,5.00585938 L97.6951884,15 L95.5760478,15 Z M110.462643,9.98925781 C110.462643,11.643563 110.05249,12.9150346 109.232174,13.8037109 C108.411857,14.6923873 107.236088,15.1367188 105.70483,15.1367188 C104.173572,15.1367188 102.997803,14.6923873 102.177486,13.8037109 C101.35717,12.9150346 100.947018,11.6390057 100.947018,9.97558594 C100.947018,8.31216616 101.358309,7.04183381 102.180904,6.16455078 C103.003499,5.28726775 104.182687,4.84863281 105.718502,4.84863281 C107.254317,4.84863281 108.428947,5.29068568 109.242428,6.17480469 C110.055908,7.05892369 110.462643,8.33039535 110.462643,9.98925781 Z M103.168697,9.98925781 C103.168697,11.1057999 103.380609,11.9466118 103.804439,12.5117188 C104.22827,13.0768257 104.861727,13.359375 105.70483,13.359375 C107.395594,13.359375 108.240963,12.2360138 108.240963,9.98925781 C108.240963,7.73794447 107.400151,6.61230469 105.718502,6.61230469 C104.875399,6.61230469 104.239663,6.89599326 103.811275,7.46337891 C103.382888,8.03076456 103.168697,8.87271577 103.168697,9.98925781 Z M115.833612,9.70898438 L116.530878,9.70898438 C117.182574,9.70898438 117.670199,9.58024217 117.993768,9.32275391 C118.317338,9.06526564 118.47912,8.69043215 118.47912,8.19824219 C118.47912,7.70149491 118.343542,7.3346366 118.072382,7.09765625 C117.801222,6.8606759 117.376258,6.7421875 116.797479,6.7421875 L115.833612,6.7421875 L115.833612,9.70898438 Z M120.618768,8.12304688 C120.618768,9.19857309 120.282672,10.021156 119.610468,10.5908203 C118.938264,11.1604846 117.982381,11.4453125 116.742792,11.4453125 L115.833612,11.4453125 L115.833612,15 L113.714472,15 L113.714472,5.00585938 L116.906854,5.00585938 C118.1191,5.00585938 119.040803,5.26676171 119.671991,5.78857422 C120.303179,6.31038672 120.618768,7.08853649 120.618768,8.12304688 Z" id="GIOP"></path>
                </g>
                <path d="M56.384,31.928 L56.384,34.968 L62.816,34.968 L62.816,35.688 L49.216,35.688 L49.216,34.968 L55.6,34.968 L55.6,31.928 L51.216,31.928 L51.216,31.224 L55.6,31.224 L55.6,28.344 L51.184,28.344 L51.184,27.624 L60.912,27.624 L60.912,28.344 L56.384,28.344 L56.384,31.224 L60.992,31.224 L60.992,31.928 L56.384,31.928 Z M56,21.496 L56.688,21.8 C56.608,21.928 56.512,22.072 56.416,22.2 C58.416,24.648 60.864,26.456 63.504,27.976 C63.312,28.12 63.056,28.392 62.96,28.616 C60.4,27.032 58.08,25.24 56,22.792 C54.256,25.096 51.68,27.24 49.072,28.552 C48.96,28.36 48.736,28.104 48.528,27.96 C51.472,26.552 54.416,24.056 56,21.496 Z M78.848,23.432 L78.352,23.912 C77.92,23.416 77.056,22.648 76.304,22.152 L76.784,21.736 C77.504,22.216 78.4,22.952 78.848,23.432 Z M69.072,31.176 L69.264,31.864 C67.744,32.568 66.208,33.32 64.976,33.88 L64.688,33.112 C65.232,32.904 65.888,32.616 66.624,32.296 L66.624,26.36 L64.768,26.36 L64.768,25.624 L66.624,25.624 L66.624,21.832 L67.344,21.832 L67.344,25.624 L68.944,25.624 L68.944,26.36 L67.344,26.36 L67.344,31.96 C67.904,31.704 68.496,31.448 69.072,31.176 Z M74.416,32.008 L74.496,32.68 C72.512,33.272 70.448,33.896 68.912,34.36 L68.672,33.624 C70.096,33.24 72.304,32.616 74.416,32.008 Z M72.944,30.44 L72.944,27.304 L70.368,27.304 L70.368,30.44 L72.944,30.44 Z M69.712,26.632 L73.616,26.632 L73.616,31.112 L69.712,31.112 L69.712,26.632 Z M77.984,26.648 L78.72,26.792 C78.112,28.904 77.296,30.744 76.24,32.312 C76.672,34.296 77.248,35.416 77.968,35.416 C78.336,35.416 78.48,34.744 78.56,32.936 C78.736,33.096 78.976,33.256 79.168,33.32 C79.024,35.432 78.768,36.168 77.888,36.168 C76.88,36.168 76.16,35.032 75.68,33.112 C74.816,34.232 73.792,35.208 72.656,36.008 C72.544,35.864 72.24,35.608 72.064,35.48 C73.408,34.616 74.528,33.512 75.472,32.184 C75.104,30.248 74.88,27.736 74.768,24.856 L69.216,24.856 L69.216,24.136 L74.768,24.136 C74.736,23.336 74.736,22.52 74.72,21.688 L75.488,21.688 C75.488,22.536 75.488,23.352 75.504,24.136 L79.04,24.136 L79.04,24.856 L75.52,24.856 C75.584,27.4 75.776,29.576 76.048,31.288 C76.864,29.928 77.504,28.376 77.984,26.648 Z M87.808,28.584 L87.312,29.176 C86.832,28.76 85.408,27.752 84.576,27.24 C84.064,28.2 83.12,29.176 81.28,29.976 C81.168,29.816 80.944,29.56 80.784,29.416 C83.072,28.488 83.904,27.304 84.208,26.216 L80.896,26.216 L80.896,25.544 L84.336,25.544 C84.368,25.288 84.368,25.048 84.368,24.824 L84.368,23.752 L82.688,23.752 C82.368,24.344 81.984,24.872 81.616,25.304 C81.488,25.224 81.152,25 80.976,24.904 C81.776,24.072 82.416,22.888 82.816,21.656 L83.536,21.816 C83.392,22.232 83.216,22.68 83.04,23.08 L87.632,23.08 L87.632,23.752 L85.104,23.752 L85.104,24.824 C85.104,25.064 85.088,25.288 85.072,25.544 L88.064,25.544 L88.064,26.216 L84.96,26.216 L84.816,26.696 C85.488,27.064 87.36,28.248 87.808,28.584 Z M91.984,30.376 L84.064,30.376 L84.064,32.264 L91.984,32.264 L91.984,30.376 Z M84.064,34.856 L91.984,34.856 L91.984,32.904 L84.064,32.904 L84.064,34.856 Z M83.312,36.168 L83.312,29.704 L92.768,29.704 L92.768,36.12 L91.984,36.12 L91.984,35.544 L84.064,35.544 L84.064,36.168 L83.312,36.168 Z M93.36,27.592 L93.36,23.768 L89.536,23.768 L89.536,27.592 L93.36,27.592 Z M88.8,23.064 L94.128,23.064 L94.128,28.296 L88.8,28.296 L88.8,23.064 Z M109.6,28.568 L106.544,28.568 C105.232,28.568 104.848,28.312 104.848,27.272 L104.848,21.672 L105.6,21.672 L105.6,24.584 C107.12,24.104 108.8,23.496 109.808,22.984 L110.352,23.56 C109.072,24.136 107.232,24.76 105.6,25.224 L105.6,27.256 C105.6,27.736 105.76,27.848 106.56,27.848 L109.552,27.848 C110.224,27.848 110.352,27.56 110.416,25.896 C110.608,26.024 110.896,26.136 111.136,26.2 C111.024,28.072 110.784,28.568 109.6,28.568 Z M98.464,32.12 L102.448,32.12 L102.448,30.344 L98.464,30.344 L98.464,32.12 Z M102.448,27.992 L98.464,27.992 L98.464,29.688 L102.448,29.688 L102.448,27.992 Z M103.2,27.304 L103.2,35.112 C103.2,35.624 103.088,35.848 102.736,35.992 C102.352,36.12 101.664,36.136 100.64,36.136 C100.608,35.912 100.48,35.608 100.368,35.384 C101.248,35.416 101.952,35.4 102.176,35.384 C102.4,35.384 102.448,35.336 102.448,35.128 L102.448,32.776 L98.464,32.776 L98.464,36.152 L97.728,36.152 L97.728,27.304 L103.2,27.304 Z M101.072,22.888 L101.68,22.616 C102.56,23.688 103.504,25.128 103.856,26.072 L103.232,26.376 C103.12,26.12 102.976,25.832 102.816,25.512 C98.112,25.832 97.632,25.896 97.328,26.008 C97.296,25.832 97.168,25.432 97.072,25.24 C97.296,25.208 97.52,24.968 97.776,24.6 C98.08,24.28 99.008,22.936 99.584,21.64 L100.352,21.928 C99.712,23.096 98.96,24.264 98.224,25.144 L102.464,24.904 C102.048,24.216 101.552,23.496 101.072,22.888 Z M106.592,35.32 L109.648,35.32 C110.368,35.32 110.48,34.984 110.56,33.096 C110.752,33.24 111.04,33.352 111.264,33.384 C111.152,35.496 110.912,36.008 109.68,36.008 L106.576,36.008 C105.232,36.008 104.848,35.752 104.848,34.696 L104.848,29.096 L105.616,29.096 L105.616,31.832 C107.232,31.352 109.04,30.712 110.048,30.072 L110.56,30.664 C109.328,31.4 107.328,32.024 105.616,32.488 L105.616,34.712 C105.616,35.192 105.776,35.32 106.592,35.32 Z M126.032,22.792 L126.032,23.528 L118.08,23.528 L118.08,22.792 L126.032,22.792 Z M126.672,33.144 L126,33.512 C125.824,33.16 125.6,32.728 125.328,32.248 C118.96,32.792 118.336,32.856 117.952,33.032 C117.904,32.84 117.792,32.44 117.68,32.232 C117.92,32.184 118.192,31.784 118.528,31.256 C118.848,30.792 119.856,29 120.528,27.24 L117.024,27.24 L117.024,26.504 L127.2,26.504 L127.2,27.24 L121.424,27.24 C120.704,28.952 119.792,30.712 118.864,32.056 L124.944,31.592 C124.352,30.568 123.664,29.432 123.056,28.488 L123.696,28.216 C124.752,29.8 126.048,31.928 126.672,33.144 Z M116.624,24.696 L116.096,25.288 C115.456,24.728 114.192,23.832 113.232,23.192 L113.76,22.696 C114.704,23.304 115.968,24.168 116.624,24.696 Z M115.856,27.336 L115.856,33.496 C116.24,33.64 116.624,34.008 117.344,34.472 C118.432,35.144 119.728,35.272 121.52,35.272 C123.424,35.272 125.68,35.16 127.296,35.016 C127.2,35.224 127.088,35.608 127.072,35.848 C126.048,35.912 123.216,36.008 121.504,36.008 C119.552,36.008 118.224,35.816 117.072,35.096 C116.464,34.696 115.888,34.136 115.504,34.136 C114.944,34.136 114.144,35.032 113.28,36.168 L112.736,35.528 C113.6,34.536 114.4,33.752 115.104,33.512 L115.104,28.072 L112.752,28.072 L112.752,27.336 L115.856,27.336 Z M140.304,23.976 L139.584,24.28 C139.424,23.672 138.944,22.728 138.496,22.04 L139.152,21.784 C139.616,22.472 140.096,23.384 140.304,23.976 Z M130.32,30.888 L133.696,30.264 C133.68,30.456 133.696,30.728 133.712,30.888 C129.888,31.672 129.44,31.8 129.152,31.96 C129.12,31.8 129.008,31.432 128.896,31.256 C129.216,31.192 129.6,30.76 130.08,30.168 C130.4,29.8 131.152,28.84 131.952,27.64 C129.616,27.976 129.248,28.056 129.04,28.152 C129.008,27.992 128.88,27.608 128.816,27.416 C129.04,27.368 129.312,26.952 129.648,26.408 C130,25.848 131.152,23.72 131.792,21.768 L132.496,22.056 C131.776,23.912 130.832,25.816 129.872,27.272 L132.368,26.968 C132.768,26.376 133.12,25.736 133.456,25.112 L134.096,25.48 C132.944,27.432 131.632,29.384 130.32,30.888 Z M129.024,35.016 L128.864,34.28 C130.16,34.008 132.08,33.544 134.016,33.096 L134.08,33.768 C132.256,34.2 130.416,34.664 129.024,35.016 Z M136.256,31.608 L136.256,34.232 L139.184,34.232 L139.184,31.608 L136.256,31.608 Z M139.184,27.704 L139.184,25.304 L136.256,25.304 L136.256,27.704 L139.184,27.704 Z M139.184,30.888 L139.184,28.424 L136.256,28.424 L136.256,30.888 L139.184,30.888 Z M143.184,34.232 L143.184,34.952 L136.256,34.952 L136.256,36.168 L135.52,36.168 L135.52,26.232 C135.12,26.872 134.688,27.464 134.24,27.992 C134.128,27.832 133.92,27.528 133.76,27.384 C135.088,25.88 136.224,23.624 136.816,21.8 L137.568,22.008 C137.28,22.824 136.88,23.72 136.448,24.584 L142.944,24.584 L142.944,25.304 L139.904,25.304 L139.904,27.704 L142.528,27.704 L142.528,28.424 L139.904,28.424 L139.904,30.888 L142.56,30.888 L142.56,31.608 L139.904,31.608 L139.904,34.232 L143.184,34.232 Z M159.104,29.576 L159.104,30.344 L152.352,30.344 L152.352,36.168 L151.584,36.168 L151.584,30.344 L144.928,30.344 L144.928,29.576 L151.584,29.576 L151.584,23.56 L145.744,23.56 L145.744,22.808 L158.224,22.808 L158.224,23.56 L152.352,23.56 L152.352,29.576 L159.104,29.576 Z M146.96,24.696 L147.632,24.488 C148.32,25.72 149.04,27.336 149.296,28.312 L148.576,28.584 C148.32,27.592 147.632,25.944 146.96,24.696 Z M155.024,28.68 L154.368,28.44 C155.04,27.384 155.872,25.608 156.32,24.392 L157.12,24.664 C156.512,25.976 155.696,27.656 155.024,28.68 Z M172.16,30.376 L163.824,30.376 L163.824,34.504 L172.16,34.504 L172.16,30.376 Z M163.056,36.168 L163.056,29.624 L172.944,29.624 L172.944,36.12 L172.16,36.12 L172.16,35.256 L163.824,35.256 L163.824,36.168 L163.056,36.168 Z M169.744,24.088 L170.352,23.688 C171.968,25.048 173.824,27 174.64,28.328 L173.984,28.808 C173.712,28.376 173.344,27.848 172.896,27.32 C163.312,27.88 162.512,27.928 161.984,28.12 C161.952,27.944 161.84,27.56 161.744,27.352 C162.048,27.288 162.496,26.904 163.04,26.376 C163.616,25.848 165.568,23.752 166.912,21.736 L167.664,22.088 C166.24,23.992 164.688,25.784 163.168,27.16 L172.352,26.68 C171.552,25.768 170.624,24.84 169.744,24.088 Z" id="全域智能运维平台" fill-rule="nonzero"></path>
                <path d="M18.9997771,1.13686838e-13 C19.1816231,1.13686838e-13 19.3630233,0.0451299789 19.525704,0.135819746 L35.6930529,9.13688659 C36.5011084,9.58646715 36.7774429,10.5827652 36.3112399,11.3615797 C35.8445912,12.140824 34.8123483,12.4073057 34.0042928,11.9577252 L19.525704,3.89665132 C19.2003425,3.71527179 18.7992118,3.71527179 18.4738503,3.89665132 L3.90344714,12.0093023 C3.5780856,12.190252 3.37796596,12.5255033 3.37796596,12.8874027 L3.37796596,29.1127047 C3.37796596,29.4746042 3.5780856,29.8094256 3.90344714,29.9908052 L18.4738503,38.1030263 C18.7992118,38.2844059 19.2003425,38.2844059 19.525704,38.1030263 L34.0965529,29.9908052 C34.4219144,29.8094256 34.622034,29.4746042 34.622034,29.1127047 L34.622034,22.5215787 C34.622034,22.2348959 34.3809099,22.0019393 34.0827361,22.0019393 L31.5230767,22.0019393 C30.6757996,22.0019393 29.9805065,21.3980572 29.8592759,20.6132253 C29.8093574,20.5251144 29.7135317,20.4636517 29.6012151,20.4636517 C29.4470027,20.4636517 29.3128467,20.5865772 29.3128467,20.7417383 L29.3128467,19.8937245 C29.3128467,20.0493155 29.4470027,20.1726708 29.6012151,20.1726708 C29.7625588,20.1726708 29.8967147,20.0493155 29.8967147,19.8937245 L29.8967147,19.9569065 C30.088366,19.2606154 30.7404262,18.7439846 31.5230767,18.7439846 L36.9485919,18.7439846 C37.52934,18.7439846 38,19.198293 38,19.7583346 L38,30.9931205 C38,31.3554498 37.7994347,31.6898414 37.4745188,31.8712209 L19.525704,41.8642877 C19.2003425,42.0452374 18.7992118,42.0452374 18.4738503,41.8642877 L0.525481181,31.8712209 C0.200565336,31.6898414 0,31.3554498 0,30.9931205 L0,11.0065572 C0,10.6446577 0.200565336,10.3094064 0.525481181,10.1284567 L18.4738503,0.135819746 C18.636531,0.0451299789 18.8183769,1.13686838e-13 18.9997771,1.13686838e-13 Z M19.0292487,14.3172521 C19.0292487,13.5932398 19.6137083,13 20.3349012,13 C21.0556628,13 21.6534938,13.5932398 21.6534938,14.3172521 L21.6534938,23.3942535 C21.7056854,23.602537 21.9265292,23.7588578 22.1792918,23.7588578 C22.4717373,23.7588578 22.7119911,23.5566367 22.7119911,23.3093813 L22.7119911,16.4364604 C22.7119911,15.7124481 23.2968821,15.112713 24.0176437,15.112713 C24.7388366,15.112713 25.3232962,15.7124481 25.3232962,16.4364604 L25.3232962,19.2337808 C25.3232962,19.4819022 25.5635501,19.6836904 25.8624656,19.6836904 C26.1480097,19.6836904 26.3882636,19.4819022 26.3882636,19.2337808 L26.3882636,17.1799587 C26.3882636,16.4498841 26.9731545,15.8627066 27.6943475,15.8627066 C28.4151091,15.8627066 29,16.4498841 29,17.1799587 L29,23.3288673 C29,24.0524466 28.4151091,24.6526147 27.6943475,24.6526147 C26.9731545,24.6526147 26.3882636,24.0524466 26.3882636,23.3288673 L26.3882636,20.752821 C26.3882636,20.5116279 26.1480097,20.3094068 25.8624656,20.3094068 C25.5635501,20.3094068 25.3232962,20.5116279 25.3232962,20.752821 L25.3232962,26.5760972 C25.3232962,27.2996765 24.7388366,27.8864209 24.0176437,27.8864209 C23.2968821,27.8864209 22.7119911,27.2996765 22.7119911,26.5760972 L22.7119911,24.8284215 C22.7119911,24.5872284 22.4717373,24.3850073 22.1792918,24.3850073 C21.9265292,24.3850073 21.7056854,24.5348328 21.6534938,24.7374869 L21.6534938,28.6888102 C21.6534938,29.4123895 21.0556628,30 20.3349012,30 C19.6137083,30 19.0292487,29.4123895 19.0292487,28.6888102 L19.0292487,21.6071729 C19.0292487,21.3659798 18.7889948,21.1637586 18.5030193,21.1637586 C18.2433554,21.1637586 18.0289816,21.3200795 17.9707513,21.5223006 L17.9707513,24.1702285 C17.9707513,24.8938078 17.3858604,25.4801192 16.6586288,25.4801192 C15.9374358,25.4801192 15.3529762,24.8938078 15.3529762,24.1702285 L15.3529762,23.1201508 C15.3529762,22.8789577 15.1127223,22.6767365 14.8202769,22.6767365 C14.5278314,22.6767365 14.2944789,22.8789577 14.2944789,23.1201508 L14.2944789,27.3914771 C14.2944789,28.1215517 13.709588,28.7082962 12.9888264,28.7082962 C12.2680647,28.7082962 11.6702337,28.1215517 11.6702337,27.3914771 L11.6702337,21.3594844 C11.6702337,21.1182913 11.4295485,20.9160702 11.1440044,20.9160702 C10.8450889,20.9160702 10.6113051,21.1182913 10.6113051,21.3594844 L10.6113051,24.7374869 C10.6113051,25.4606332 10.0268455,26.0608013 9.30565255,26.0608013 C8.5844596,26.0608013 8,25.4606332 8,24.7374869 L8,17.0561145 C8,16.3321022 8.5844596,15.7319341 9.30565255,15.7319341 C10.0268455,15.7319341 10.6113051,16.3321022 10.6113051,17.0561145 L10.6113051,19.8404442 C10.6113051,20.0881327 10.8450889,20.2899208 11.1440044,20.2899208 C11.4295485,20.2899208 11.6702337,20.0881327 11.6702337,19.8404442 L11.6702337,16.3186785 C11.6702337,15.5950992 12.2680647,15.0083548 12.9888264,15.0083548 C13.709588,15.0083548 14.2944789,15.5950992 14.2944789,16.3186785 L14.2944789,21.6006776 C14.2944789,21.848366 14.5278314,22.0505871 14.8202769,22.0505871 C15.1127223,22.0505871 15.3529762,21.848366 15.3529762,21.6006776 L15.3529762,18.8427622 C15.3529762,18.1183168 15.9374358,17.5255101 16.6586288,17.5255101 C17.3858604,17.5255101 17.9707513,18.1183168 17.9707513,18.8427622 L17.9707513,20.1725719 C18.0289816,20.3877837 18.2433554,20.5380422 18.5030193,20.5380422 C18.7889948,20.5380422 19.0292487,20.3353881 19.0292487,20.0881327 L19.0292487,14.3172521 Z" id="形状结合"></path>
            </g>
        </g>
    </g>
</svg>