<?xml version="1.0" encoding="UTF-8"?>
<svg width="141px" height="31px" viewBox="0 0 141 31" version="1.1" xmlns="http://www.w3.org/2000/svg" xmlns:xlink="http://www.w3.org/1999/xlink">
    <!-- Generator: Sketch 53.2 (72643) - https://sketchapp.com -->
    <title>资源 1</title>
    <desc>Created with Sketch.</desc>
    <defs>
        <linearGradient x1="29.4382734%" y1="14.4773701%" x2="68.7020227%" y2="85.9422288%" id="linearGradient-1">
            <stop stop-color="#FD7900" offset="0%"></stop>
            <stop stop-color="#08B707" offset="100%"></stop>
        </linearGradient>
        <linearGradient x1="48.2630858%" y1="15.0575026%" x2="52.3740812%" y2="91.3511655%" id="linearGradient-2">
            <stop stop-color="#91908D" offset="0%"></stop>
            <stop stop-color="#C9C7C6" offset="100%"></stop>
        </linearGradient>
        <filter x="0.0%" y="0.0%" width="100.0%" height="100.0%" filterUnits="objectBoundingBox" id="filter-3">
            <feGaussianBlur stdDeviation="0 -0" in="SourceGraphic"></feGaussianBlur>
        </filter>
        <filter x="0.0%" y="0.0%" width="100.0%" height="100.0%" filterUnits="objectBoundingBox" id="filter-4">
            <feGaussianBlur stdDeviation="0 -0" in="SourceGraphic"></feGaussianBlur>
        </filter>
    </defs>
    <g id="Symbols" stroke="none" stroke-width="1" fill="none" fill-rule="evenodd">
        <g id="Navi" transform="translate(-28.000000, -10.000000)">
            <g id="资源-1" transform="translate(28.000000, 10.000000)">
                <path d="M26.2525802,13.834397 L22.3986128,13.834397 C21.8553053,13.8352703 21.3807215,14.2026066 21.2427392,14.7290638 L21.2427392,14.6814751 C21.2297775,14.7863693 21.140817,14.8651399 21.0353153,14.8651399 C20.9298136,14.8651399 20.8408532,14.7863693 20.8278914,14.6814751 L20.8278914,15.3159905 C20.8278914,15.2612982 20.8495781,15.208846 20.8881807,15.1701727 C20.9267833,15.1314994 20.9791396,15.109773 21.0337319,15.109773 C21.1120807,15.1113118 21.1829875,15.1566283 21.217405,15.2271584 C21.3036368,15.8145868 21.8059533,16.2503654 22.3986128,16.2519008 L24.2163427,16.2519008 C24.4279671,16.2519008 24.5995227,16.4237705 24.5995227,16.6357826 L24.5995227,21.4866531 C24.5946301,21.749168 24.4528379,21.9899339 24.225843,22.1211685 L13.8736494,28.1236844 C13.6424157,28.2574319 13.3575239,28.2574319 13.1262901,28.1236844 L2.77409653,22.1370314 C2.54710162,22.0057968 2.40530948,21.7650309 2.40041686,21.502516 L2.40041686,9.51651951 C2.40530948,9.25400453 2.54710162,9.0132387 2.77409653,8.88200408 L13.1262901,2.87631556 C13.3575239,2.74256815 13.6424157,2.74256815 13.8736494,2.87631556 L24.1593407,8.8248977 C24.7304353,9.13148716 25.4413349,8.92862567 25.7654615,8.36657692 C26.0895881,7.80452816 25.9099235,7.08620627 25.3595491,6.74368709 L13.8736494,0.100310559 C13.6424157,-0.033436853 13.3575239,-0.033436853 13.1262901,0.100310559 L0.37367967,7.47655241 C0.146684756,7.60778702 0.00489261901,7.84855286 0,8.11106784 L0,22.8635515 C0.00489261901,23.1260665 0.146684756,23.3668324 0.37367967,23.498067 L13.1262901,30.8996894 C13.3575239,31.0334369 13.6424157,31.0334369 13.8736494,30.8996894 L26.6262599,23.5234476 C26.8532548,23.392213 26.9950469,23.1514471 26.9999395,22.8889322 L26.9999395,14.5926429 C27.0024802,14.3924239 26.9248639,14.1995277 26.7844305,14.0570487 C26.6439971,13.9145696 26.4524493,13.8343808 26.2525802,13.834397 Z" id="Shape" fill="url(#linearGradient-1)" fill-rule="nonzero"></path>
                <path d="M20.0750204,17.9197563 C20.5895557,17.9107271 21.0017507,17.4605719 20.9999944,16.9095988 L20.9999944,12.2219401 C20.9999944,11.6704267 20.5824184,11.2233368 20.0673123,11.2233368 C19.5522062,11.2233368 19.1346303,11.6704267 19.1346303,12.2219401 L19.1346303,13.7866938 C19.1053039,13.9875452 18.9437203,14.135605 18.7538493,14.135605 C18.5639783,14.135605 18.4023947,13.9875452 18.3730684,13.7866938 L18.3730684,11.6574404 C18.3730684,11.105927 17.9554924,10.658837 17.4403863,10.658837 C16.9252802,10.658837 16.5077042,11.105927 16.5077042,11.6574404 L16.5077042,16.8831895 C16.483631,17.0838373 16.3168357,17.2290278 16.1284649,17.2133063 C15.9593262,17.2211292 15.8058304,17.1079737 15.7523088,16.9360082 L15.7523088,10.0035551 C15.7523088,9.64501943 15.5736591,9.31371876 15.2836553,9.1344509 C14.9936516,8.95518303 14.6363522,8.95518303 14.3463484,9.1344509 C14.0563446,9.31371876 13.8776949,9.64501943 13.8776949,10.0035551 L13.8776949,14.4403251 C13.8536646,14.6396074 13.6887621,14.7843268 13.5015388,14.7704419 C13.3312824,14.7797805 13.1761308,14.6663343 13.1222995,14.4931438 L13.1222995,13.4895887 C13.1222995,12.9362521 12.7033431,12.4876841 12.1865342,12.4876841 C11.6697253,12.4876841 11.2507689,12.9362521 11.2507689,13.4895887 L11.2507689,15.5924327 C11.2266957,15.7930806 11.0599003,15.9382711 10.8715295,15.9225496 C10.6837991,15.9381493 10.5179328,15.7925841 10.4953735,15.5924327 L10.4953735,11.5683088 C10.4953735,11.0140606 10.0757268,10.5647537 9.55806651,10.5647537 C9.04040617,10.5647537 8.62075956,11.0140606 8.62075956,11.5683088 L8.62075956,14.242255 C8.59156555,14.4413843 8.43132329,14.5881221 8.24306186,14.5881221 C8.05480042,14.5881221 7.89455817,14.4413843 7.86536416,14.242255 L7.86536416,12.1295074 C7.86536416,11.577994 7.44778817,11.1309041 6.93268208,11.1309041 C6.41757599,11.1309041 6,11.577994 6,12.1295074 L6,17.9857796 C6,18.537293 6.41757599,18.984383 6.93268208,18.984383 C7.44778817,18.984383 7.86536416,18.537293 7.86536416,17.9857796 L7.86536416,15.4108685 C7.90183838,15.2185487 8.05977198,15.080338 8.24306186,15.080338 C8.42635174,15.080338 8.58428533,15.2185487 8.62075956,15.4108685 L8.62075956,20.0060945 C8.62075956,20.5603427 9.04040617,21.0096496 9.55806651,21.0096496 C10.0757268,21.0096496 10.4953735,20.5603427 10.4953735,20.0060945 L10.4953735,16.7511428 C10.5179328,16.5509914 10.6837991,16.4054262 10.8715295,16.4210259 C11.0599003,16.4053044 11.2266957,16.5504949 11.2507689,16.7511428 L11.2507689,17.5434231 C11.2507689,18.0967597 11.6697253,18.5453276 12.1865342,18.5453276 C12.7033431,18.5453276 13.1222995,18.0967597 13.1222995,17.5434231 L13.1222995,15.5330117 C13.1797532,15.3632166 13.3329752,15.2525151 13.5015388,15.2590148 C13.6887621,15.2451298 13.8536646,15.3898492 13.8776949,15.5891316 L13.8776949,20.9964449 C13.8776949,21.5506931 14.2973415,22 14.8150019,22 C15.3326622,22 15.7523088,21.5506931 15.7523088,20.9964449 L15.7523088,17.9857796 C15.8088656,17.8081008 15.972568,17.6958168 16.1469644,17.7150838 C16.3353351,17.6993623 16.5021305,17.8445528 16.5262037,18.0452007 L16.5262037,19.3656679 C16.5262037,19.9171813 16.9437797,20.3642712 17.4588858,20.3642712 C17.9739918,20.3642712 18.3915678,19.9171813 18.3915678,19.3656679 L18.3915678,14.948705 C18.4282123,14.7546928 18.5874759,14.6152044 18.7723488,14.6152044 C18.9572217,14.6152044 19.1164853,14.7546928 19.1531297,14.948705 L19.1531297,16.9129 C19.1530306,17.4613272 19.5628959,17.9089675 20.0750204,17.9197563 Z" id="Shape" fill="url(#linearGradient-2)" fill-rule="nonzero"></path>
                <text id="全域智能运维" fill="#F5FFFA" filter="url(#filter-4)" font-family="SimHei" font-size="18" font-weight="normal">
                    <tspan x="33" y="21">全域智能运维</tspan>
                </text>
            </g>
        </g>
    </g>
</svg>